<svg width="1920" height="1080" viewBox="0 0 1920 1080" fill="none" xmlns="http://www.w3.org/2000/svg">
<g clip-path="url(#clip0_30_2)">
<rect width="1920" height="1080" fill="#E9F4F4"/>
<rect x="41" y="63" width="1956" height="1003" fill="url(#paint0_radial_30_2)"/>
<rect y="0.595687" width="348.943" height="451.096" rx="63.5" transform="matrix(0.803217 0.595687 -0.803217 0.595687 1042.69 371.41)" fill="white" fill-opacity="0.8" stroke="white"/>
<path d="M918.27 337.724L732.011 475.859C719.106 485.43 706.329 490.427 693.68 490.85C681.031 491.274 670.062 488.041 660.771 481.151C651.481 474.261 647.277 466.124 648.161 456.742C649.199 447.474 656.013 438.172 668.604 428.834L852.974 292.1C865.721 282.646 878.186 277.651 890.368 277.114C902.704 276.693 913.518 279.927 922.808 286.817C932.099 293.707 936.537 301.784 936.123 311.048C935.71 320.312 929.759 329.204 918.27 337.724ZM953.486 265.099C944.66 258.554 939.827 250.884 938.987 242.091C938.301 233.412 942.995 225.338 953.067 217.868C962.195 211.099 972.845 207.909 985.016 208.298C997.5 208.686 1008 212.038 1016.52 218.354C1024.72 224.44 1029.33 231.822 1030.32 240.498C1031.32 249.175 1026.7 257.306 1016.47 264.893C1006.56 272.246 995.673 275.727 983.813 275.335C972.111 274.827 962.002 271.415 953.486 265.099V265.099Z" fill="black" fill-opacity="0.84"/>
<path d="M1051.64 429.219L1172.63 518.955C1181.02 525.172 1185.33 531.376 1185.57 537.566C1185.81 543.756 1182.82 549.163 1176.58 553.787C1170.35 558.411 1163.06 560.557 1154.71 560.225C1146.47 559.816 1138.26 556.579 1130.08 550.513L1010.31 461.687C1002.03 455.545 997.715 449.494 997.368 443.534C997.125 437.497 1000.12 432.166 1006.36 427.543C1012.59 422.919 1019.83 420.658 1028.07 420.761C1036.32 420.865 1044.17 423.684 1051.64 429.219ZM987.347 412.752C981.424 417.144 974.543 419.594 966.704 420.1C958.969 420.528 951.83 418.316 945.287 413.464C939.357 409.066 936.631 403.885 937.109 397.92C937.588 391.802 940.685 386.623 946.401 382.385C951.908 378.3 958.53 375.967 966.267 375.386C974.003 374.804 981.194 376.977 987.84 381.906C994.281 386.682 997.263 391.977 996.787 397.789C996.209 403.526 993.062 408.513 987.347 412.752Z" fill="black" fill-opacity="0.84"/>
<path d="M978.731 531.573L1099.73 621.309C1108.11 627.526 1112.43 633.73 1112.67 639.92C1112.91 646.11 1109.91 651.517 1103.68 656.141C1097.44 660.765 1090.15 662.911 1081.81 662.579C1073.57 662.17 1065.36 658.933 1057.18 652.867L937.405 564.041C929.124 557.899 924.81 551.848 924.463 545.888C924.22 539.851 927.216 534.52 933.451 529.897C939.686 525.273 946.925 523.012 955.17 523.116C963.414 523.219 971.268 526.038 978.731 531.573ZM914.442 515.106C908.519 519.498 901.638 521.948 893.799 522.454C886.064 522.882 878.925 520.671 872.382 515.818C866.452 511.42 863.726 506.239 864.204 500.274C864.683 494.156 867.781 488.977 873.496 484.739C879.003 480.654 885.625 478.321 893.362 477.74C901.098 477.158 908.289 479.331 914.935 484.26C921.376 489.036 924.358 494.331 923.882 500.143C923.304 505.88 920.157 510.867 914.442 515.106Z" fill="black" fill-opacity="0.84"/>
<path d="M906.177 633.657L1027.18 723.393C1035.56 729.61 1039.87 735.814 1040.11 742.004C1040.35 748.194 1037.36 753.601 1031.12 758.225C1024.89 762.849 1017.6 764.995 1009.25 764.663C1001.01 764.254 992.801 761.017 984.622 754.951L864.851 666.125C856.57 659.983 852.256 653.932 851.909 647.972C851.666 641.935 854.661 636.604 860.896 631.981C867.131 627.357 874.371 625.096 882.615 625.199C890.86 625.303 898.713 628.122 906.177 633.657ZM841.887 617.19C835.964 621.582 829.084 624.032 821.245 624.538C813.51 624.966 806.371 622.755 799.828 617.902C793.898 613.504 791.172 608.323 791.649 602.358C792.129 596.24 795.226 591.061 800.941 586.823C806.449 582.738 813.071 580.405 820.807 579.824C828.544 579.242 835.735 581.415 842.38 586.344C848.821 591.12 851.804 596.415 851.328 602.227C850.749 607.964 847.603 612.951 841.887 617.19Z" fill="black" fill-opacity="0.84"/>
</g>
<defs>
<radialGradient id="paint0_radial_30_2" cx="0" cy="0" r="1" gradientUnits="userSpaceOnUse" gradientTransform="translate(1019 564.5) rotate(90) scale(501.5 978)">
<stop stop-color="#20E3B2" stop-opacity="0.31"/>
<stop offset="1" stop-color="#D9D9D9" stop-opacity="0"/>
</radialGradient>
<clipPath id="clip0_30_2">
<rect width="1920" height="1080" fill="white"/>
</clipPath>
</defs>
</svg>
